<svg width="24" height="22" viewBox="0 0 24 22" fill="none" xmlns="http://www.w3.org/2000/svg">
<path d="M6.82422 0.501953C8.4846 0.457061 10.0996 1.05006 11.3369 2.1582L11.6699 2.45703L12.0039 2.1582C13.2418 1.05091 14.8564 0.459078 16.5166 0.504883C18.1771 0.550817 19.7577 1.23099 20.9326 2.40527C22.1061 3.57868 22.7864 5.15661 22.834 6.81543C22.8814 8.4716 22.2933 10.0824 21.1924 11.3203L11.667 20.8594L2.1377 11.3135C1.03992 10.076 0.455197 8.46647 0.50293 6.8125C0.550957 5.15221 1.2326 3.5728 2.4082 2.39941C3.58378 1.22609 5.1639 0.546868 6.82422 0.501953Z" stroke="#333333"/>
</svg>
