<svg width="30" height="30" viewBox="0 0 30 30" fill="none" xmlns="http://www.w3.org/2000/svg">
<path d="M21.25 13.7109H8.75C7.36929 13.7109 6.25 14.8302 6.25 16.2109V23.7109C6.25 25.0916 7.36929 26.2109 8.75 26.2109H21.25C22.6307 26.2109 23.75 25.0916 23.75 23.7109V16.2109C23.75 14.8302 22.6307 13.7109 21.25 13.7109Z" stroke="#333333"/>
<path d="M19.3576 13.7309V9.05469C19.3576 8.55741 19.16 8.08049 18.8084 7.72886C18.4568 7.37723 17.9799 7.17969 17.4826 7.17969H12.5176C12.0203 7.17969 11.5434 7.37723 11.1918 7.72886C10.8401 8.08049 10.6426 8.55741 10.6426 9.05469V13.7297" stroke="#333333"/>
</svg>
