<?xml version="1.0" encoding="UTF-8"?>
<svg id="Layer_2" data-name="Layer 2" xmlns="http://www.w3.org/2000/svg" viewBox="0 0 76.65 47.14">
  <defs>
    <style>
      .cls-1 {
        fill: #b4b4d3;
      }
    </style>
  </defs>
  <g id="Layer_1-2" data-name="Layer 1">
    <g>
      <path class="cls-1" d="M37.64,24.49c-1.81-2.21,36.15-20.53,37.47-21.71,1.32-1.18-.04,0-.05,0-.25,0-.48-.04-.72-.07-23.19,6.92-40.23,15.28-40.56,15.18-1.11-.34,4.49-8.79,8.74-14.79-.04-.12-.1-.24-.13-.37-9.46,10.68-16.3,13.53-16.3,13.53-1.89,1.28-5.12-6.42-5.12-6.42-1,10.27-.63,10.45-2.55,11.07-1.38.45-8.69-.8-12.73-1.54.14.12.26.26.36.41,9.66,3.3,4.04,6.18-1.58,7.88.56-.04,1.13,0,1.69.15l.57.24c13.2-.23,7.71,10.09,5,14.21.28-.2.59-.36.92-.49,12.3-11.98,17.29-4.06,17.29-4.06.31-7.45,4.21-7.38,4.21-7.38,7.25-1.14,34.4,1,34.4,1-31.85-3.12-30.91-6.85-30.91-6.85Z"/>
      <g>
        <path class="cls-1" d="M38.28,24.65c-.02-.09-.09-.12-.15-.08-.01,0-.04.07-.04,0v-.04s0,0,0,0h0s0,0,0,0h-.16s0,0,0,0h0s0,0,0,0h.03s.08,0,.11,0c-.03-.01,0,.05.03.09.13,0,.27-.02.38-.06l-.14-.1h-.02s-.01-.01-.01-.01l-.1.03c-.06.03-.13.05-.2.06h-.05s-.03,0-.03,0h-.01s0,0,0,0h0s0,0,0,0h.38s0-.01,0-.01h0s0,.1-.02.14Z"/>
        <path class="cls-1" d="M39.86,26.18c.53.05,1.17-.02.98-.41-.57.12-.63-.03-1.26.07-.41-.14-.6-.43-.48-.5-.17,0-.49-.37-.76-.36.21.54.9.9,1.64,1.01.11.13-.06.15-.12.19Z"/>
        <path class="cls-1" d="M55.6,30.03l.27.05c-.07-.03-.17-.04-.27-.05Z"/>
        <path class="cls-1" d="M30.18,33.05c.08-.2.09-.3.07-.32-.06.19-.11.35-.07.32Z"/>
        <path class="cls-1" d="M29.17,35.73s.02-.04.02-.06c-.03-.01-.04-.01-.02.06Z"/>
        <path class="cls-1" d="M55.6,30.03l-.69-.14c-.05.11.35.1.69.14Z"/>
        <path class="cls-1" d="M45.6,27.12c-.15-.02-.27-.01-.39,0l.35.04s.02-.03.03-.05Z"/>
        <path class="cls-1" d="M67.14,30.5h.21c.07-.02.13-.06.19-.11l-.4.11Z"/>
        <path class="cls-1" d="M61.11,31.31c.2.04.3-.23.39-.35-.13.1-.28.14-.46.14,0,.05,0,.12.07.21Z"/>
        <path class="cls-1" d="M47.28,28.67l-.25-.02c.07,0,.17.02.25.02Z"/>
        <path class="cls-1" d="M60.81,30.01s-.04-.08-.07-.11c0,.04.03.07.07.11Z"/>
        <path class="cls-1" d="M46.31,19.63s-.02-.03-.03-.04c-.03.05-.03.08.03.04Z"/>
        <path class="cls-1" d="M37.58,24.54s-.07-.1-.09-.16c-.05,0-.11-.03-.16-.03.05.09.17.16.24.19Z"/>
        <path class="cls-1" d="M22.34,34.08s.02,0,.04,0c.23-.08.1-.05-.04,0Z"/>
        <path class="cls-1" d="M21.73,14.3c-.11-.17-.17-.44-.22-.79-.05-.33-.1-.77-.25-.72.05.1.11.55.2.89.09.35.19.58.27.63Z"/>
        <path class="cls-1" d="M45.81,27.2l.35.08c-.16-.05-.27-.07-.35-.08Z"/>
        <path class="cls-1" d="M21.26,12.79h0s-.03.02-.03.02c.01,0,.02-.01.03-.02Z"/>
        <path class="cls-1" d="M15.53,37.55c-.06.02-.12.08-.19.15.03,0,.08-.03.19-.15Z"/>
        <path class="cls-1" d="M17.84,36.62l-.32.16c.13-.06.24-.11.32-.16Z"/>
        <path class="cls-1" d="M14.69,29.68c-.13-.18-.15-.28-.41-.45.01.03.03.06.05.09.11.04.23.13.36.36Z"/>
        <path class="cls-1" d="M7.04,27.26s.1.04.14.06c.08,0,.17,0,.25-.01l-.39-.04Z"/>
        <path class="cls-1" d="M66.54,8.68c-.18,0-.32-.02-.43-.06.2.12-.76.7.43.06Z"/>
        <path class="cls-1" d="M45.56,27.27c.06-.06.13-.08.25-.07-.08-.01-.17-.03-.25-.04-.03.04-.04.07,0,.11Z"/>
        <path class="cls-1" d="M12.89,30.98l-.31-.29-.36-.27c.2.16.45.35.66.56Z"/>
        <path class="cls-1" d="M36.23,15.62l.1-.08s-.05.02-.1.08Z"/>
        <path class="cls-1" d="M9.34,29.61c-.18-.12-.38-.21-.59-.26-.05.02-.1.03-.14.06.25.05.49.13.73.2Z"/>
        <path class="cls-1" d="M66.11,8.61h0s0,0,0,0Z"/>
        <path class="cls-1" d="M59.37,12.86c1.02-.52.31-.57.43-.87,1.17-.73.69-.05,1.19-.1.71-.48,1.14-1.08,1.71-1.37.07.03.19,0,.1.13.67-.68,2.38-1.25,3.15-2.06.08,0,.13,0,.16.02-.24-.09-.35-.24-.38-.38.45-.24.74-.65,1.02-.52-.28.14-.26.24-.36.37l.43-.34c.59.09-.6.44-.48.67.88-.58,1.84-1.4,2.6-1.68.31.22-1.62.97-.53.74l-1.17.46c1.09.04-.69.31.35.42,1.5-.67,1.55-.99,3.06-1.66.24-.34-.24-.19,0-.53,1.91-1.38,2.02-.09,3.34-1.3.14-.21.2-.42.38-.64.19-.23.42-.4,1.1-.69-.09.21-.14.4-.21.58.22-.12.45-.27.65-.46.18-.19.23-.3.29-.42.03-.06.05-.11.08-.17l.04-.09.02-.03s0,0,.03-.04l.03-.04v-.02s.01.05.16-.25c.25.06-.04-1.35-.79-1.28-.41,0-.42.08-.49.09l-.07.04s-.09.06-.1.07l-.02.02-.02.03c-.08.12-.14.22-.28.34-.06.06-.16.14-.24.19-.11-.14.27.33.45.58.02.01.04.03.05.05v.03s.01.02.01.02c0,.19,0-1.62,0-.85h0s-.01,0-.01,0h-.04s-.09-.03-.09-.03c-.07-.02-.1-.03-.22-.06.11-.03.17-.05.28-.05h.08s0,0,0,0h0s0,0,0,0h0c0-.9,0,1.23,0,1v-.03c-.02-.06-.05-.03-.11-.13l-.17-.23-.32-.4h0s.02-.03.02-.03c.04-.04.09-.09.13-.13.17-.17.31-.3.2-.23-.13.06-.23.11-.31.16-.04.03-.07.05-.1.07l-.04.03h0s0,0,0,0h0s.13.17.13.17c.17.21.27.33.4.51.06.09.13.17.15.18.02.02.02.04.03.06h0c0,1.06,0-1.42,0-1.16h0s0,0,0,0c-.1,0-.17.02-.23.06-.04.04-.18.08-.33.11-.08.02-.17,0-.28.04-.11.05-.23.09-.38.14-.12-.08-.18-.18-.28-.27-1.61.56-3.33,1.31-5.1,1.97.07-.13.34-.33-.11-.29-2.21.88-4.82,1.54-7.05,2.1l-.73.57c-.19.06-.4,0-.21-.13-.88.19.02.19-.35.44-.47.19-.69.06-.41-.13-1.41.75-4.03,2.02-5.69,2.31l.27-.2c-1.25.35-1.15,1.08-2.36,1.25l.2-.13c-2.66.88-5.43,2.28-7.58,2.68-.21.55-2.63.88-2.57,1.5-1.59.35-1.21.07-3.35.78-.56.21-.68.69-1.33,1.05l-.14-.28-.2.17s-.03.07-.05.11c-.04.08-.1.16-.17.25-.07-.1-.1-.22-.1-.36-.06.05-.12.11-.2.17.05,0,.09.11.04.23-.24.18-.51.24-.55.16-.02-.04,0-.11.05-.2.06-.12.17-.24.24-.31-.15-.01-.18-.13-.16-.37.15,0,.15.08.24.09-.29-.15.44-.13.17-.25-.09.02-.19-.04-.24-.07.08-.05.11-.04.21-.15.14-.19.29-.41.44-.64.3-.47.6-1,.85-1.46l.07.28c1.04-1.56,2.07-3.4,3.27-5.16-.51.58-.72.22-.4-.31l.41-.02c.06-.45-.47.47-.21-.35.48-.64.61-.23.44.2l.45-.86c.11,0,.03.22.09.34.06-.44,1.22-1.18,1.26-1.85h.11c.25-.36.48-.69.61-.88l.46-.67-.27-.67c-.04-.1-.08-.2-.11-.26l-.96-2.35-1.55,1.76c-.84.95-1.33,1.63-2.17,2.51.18.22-.33.66-.52,1.19-.96.84-2.11,1.66-3.21,2.69-.69.82-.07.39-.32.83-.23-.14-1.36.87-.88.22-1.35,1.21-1.73,1.55-3.44,3.09.26-.06.52-.19.45-.04-.31.28-.83.47-.85.34l.07-.09c-.61.6-1.41,1.09-2.25,1.52-.42.21-.85.4-1.28.57-.21.08-.42.17-.63.25-.2.07-.45.17-.48.16-.1.02-.18-.03-.24-.06,0,.03-.3-.2-.56-.36l.08.05c-.23-.2-.47-.42-.69-.67-.29-.35-.69-.89-.98-1.34-.38-.75-.25-.62-.07-.4.18.19.42.47.13-.22-.7-1.03-1.19-2.06-1.69-3.19-.49-1.1-.96-2.28-1.43-3.41l-.13.46s-.03.21-.05.35l-.04.44c-.05.61-.09,1.28-.1,2.03-.41.29-.65,3-.84,5.56-.03.48-.06.96-.09,1.44-.03.34-.05.68-.08,1.01-.07.64-.18,1.24-.37,1.66l.19-.07c.1.5-.2.53-.3.8.14,0,.25-.4.29-.12-.1.5-.11.57-.27.67-.02.02-.12.05-.19.09-.09.03-.25.09-.32.1-.04,0-.3.03-.53.03-1-.02-2.13-.19-3.23-.38-2.22-.4-4.45-.93-6.65-1.39-1.08-.22-1.2.18-1.76.24l-3.09.3,2.17,1.54c.14.1.29.23.47.45.1.1.32.15.51.25.23.1.28.15.45.24-.23.04-.36.1-.84.05.47.14.56.15.78.21.19.05.38.11.57.17.38.12.75.26,1.1.42.7.31,1.37.72,1.76,1.12.21.23.18.23.21.34,0,.1,0,.15-.1.28-.25.37-.88.84-1.48,1.25.12-.15.08-.24.32-.38-.6.12-2.1.99-2.06,1.17-.46.15-.17-.12-.48-.11-.66.1-1.48.84-1.9.71-.07-.02.16-.13.27-.18-.1.06-.28.13-.48.2l.5,2.69c.48-.07,1.06.07.86-.17l.32.09.27.11c.24.09.46.23.72.19.19,0,.37,0,.55-.01.53-.03,1.02-.02,1.47.09.64-.26,1.87.41,2.12.07-.1.21.34.41.83.63.48.22,1.02.46,1.29.59-.22-.03.26.44-.04.42.41.42.67.91.86.73-.02.65.14,1.22.21,1.85.07.62.02,1.22-.41,1.54-.34,2.35-1.37,4.57-2.52,6.55-.31-.3,1.29-2.19.8-2.34-.39.88-.7,1.62-1.03,2.32l-2.61,5.45,4.08-4.02c.09-.09.19-.18.3-.26l.17-.11c.07-.04.23-.12.35-.17.27-.27.54-.54.83-.82.25-.23.51-.47.81-.72.46-.33-.11.36-.19.55,1.47-1.65,3.25-2.62,4.74-3.82.01.03-.14.19-.28.32.3-.24.79-.35.65-.52l-.3.21c-.69.01,1.04-1.22,1.06-1.4-.17.42.27.21.69.14.42-.09.78-.14.45.37.21-.12.46-.31.37-.42.35-.08.47-.04.18.23.59-.26.78-.32.95-.45.17-.08.34-.25.92-.26,0,.1-.22.15-.32.27.27-.11.55-.22.89-.31.34-.09.73-.04,1.21.04-.07.05.03.14-.25.11.38.02.72.13,1.07.15.33.11.67.14,1,.29.23.1.46.21.69.37.22.18.44.36.66.55.44.39.89.84,1.3,1.37.03.01.06.01.08.03.01,0,.03.04.04,0l.02-.1c.02.11.04.2.05.28.01.06.02.1.03.14.02.08.04.13.07.18.06.14.07-.07.1-.22.05-.35.11-.86.29-.67,0-.68.04-1.35.07-1.98-.08.2-.16.37-.24.53.09-.71.08-1.53.17-2.04.03-.42.11-.8.3-1.14l-.06.67.23-.79c.1-.25.19-.5.31-.75-.18.25-.35.51-.51.79.18-.9-.51-.1.14-1.16-.05.12.07-.08.26-.34.21-.24.5-.53.74-.6h0c.22-.37.54-.79,1.19-.92.19.06.01.43.13.48.06-.13.31-.23.47-.27h.1c.68-.13,1.61-.22,2-.45-.19.09-.19.28-.12.32l.37-.27c.44.06.51.09.45.25,1.31-.02-.44-.46,1.13-.32-.12.02-.06.06-.32.1,1.58.06,3.05-.21,4.51-.08.43.38-1.27.09-.78.41,2.09-.07,4.35-.38,6.38-.23l-.38-.05c.3-.52,1.5.31,2.54.11-.25.03-.34.28-.27.22,1.39.14,2.85,0,4.97-.07l-.27.12c.81.17,2.15.18,3.04.3.27-.12.78-.07.48-.28,2.68.93,5.23-.09,7.61.72-.29-.02-.7.07-.47.09l2.07.02c-.15-.24-.26-.16-.68-.37.27-.12.86-.18,1.37-.14-.94.08-.02.37.37.53-.06-.08.08-.14.05-.22.09.04.17.07.23.1l.07-.81c-.69-.26-.12.51-1.44.12l.09-.11c-.55,0-1.08.11-1.67.01-.22-.29.6-.06.66-.28-.83-.07-1.69.33-2.42-.01.36-.04.87.02,1.23-.02-.79-.4-.89-.33-1.49-.44h.06s-1.39-.29-1.39-.29l.35.13c-1.12.56-2.13-.13-3.58.15,1.41-.26.26-.22.4-.51-.35-.13-.88-.29-.71-.35-.69.17-1.07-.34-2.05-.12-.03-.1-.7-.11-.52-.33-.86-.05.18.2.09.31-1.37.15-3.03-.85-4.99-.72-1.66-.08-2.01.15-3.56.03-.48-.25.49-.27.49-.27-.79-.29-1.4-.41-2.19-.48.17-.05.03-.15-.18-.31-.62-.12-.5.27-1.26-.09.17-.07.38-.18.7-.23-.74-.08-1.48-.11-2.25-.22-.15-.22.52-.13.8-.17-.86-.12-2.15-.5-2.5-.31l.49.26c-.3-.08-.08-.27.15-.24.76.02.97.41.99.52l-.54-.1c.37.73,2.14.52,3.2.79l-.55.3,1.18-.08c.21.16.32.42-.23.36.73.38.72.01,1.34.38.07.05.03.06-.04.07l.79.03c-.17.06.07.31-.39.16,1.33.5,2.27.13,2.73.53h-.12c1.93.18.24-.26,1.73-.38l.84.9.24-.27c.19.04.58.13.49.24.77-.09-.1-.15.35-.28.91.41,2.64.24,2.78.76.37-.18-.88-.31.15-.32.22.56,1.18.09,2.02.42-.3.23-1.11,0-.27.34.58-.39,1.68.31,2.43.31.08-.36,1.61.06,2.86.06-.09.11,2.3.44,3.44.7l-.04.06c.16-.21.65-.22,1.21-.19l.07-.77c-.36,0-.76-.03-1.1-.03.05-.22.21-.29.69-.35l-.81-.06c-.2.1-.46.15-.99.15l.22-.26c-1.08-.06-2.2.17-3.58-.11-.1.25,1.06.79-.42.86-.05-.14-.08-.38.3-.41-.13,0-.46.08-.71,0l.6-.19c-.63-.14-.34.17-.85.12.02-.2-.37-.16-.28-.32.13-.01.44.11.64.05-.57-.07-1.25-.23-1.47-.4.04.12-.02.27-.44.26-1.08-.05-.36-.26-.98-.4-.27.12-.95-.06-.99.23-.32-.02-.37-.16-.49-.25-.57.09-2.62-.11-2.01.24l.14.03s-.06,0-.09,0h0s0,0,0,0c-1.85.19-3.81-.37-5.64-.31v-.1c-1.09.07-2.42-.03-3.21.16-.32-.01-.76-.2-.61-.32-.84.05-.93.15-2.13-.03.84-.16-.29-.16.86-.11-1.08-.11-1.33-.27-2.5-.02.4-.25-.82-.33-1.33-.25l.76.18c-.58.04-1.09.01-1.6-.01l.28-.33c-2.25-.4-3.99.73-5.77.23-.58.29,1.26.04.74.36-.63.03-1.31-.08-1.8-.17h.16c-.58-.08-.84-.05-1.02,0-.92.23-1.21.63-1.44.98-.24.36-.42.73-.95,1.36.23-.11.53-.08.08.95-.48.92-.94,1.05-.81.35.1-.25.19-.35.22-.33.09-.35.31-.8-.03-.46l.04.19c-.39.45-.83,1.93-.91,1.53-.08.85.09.39.33-.18-.16.32-.23.63-.31.91-.03.09-.05.2-.06.31-.03.21-.04.47-.1.63.06.04.17.15.16.26-.01.07-.03.13-.04.18,0,.05-.02,0-.04-.02-.02-.02-.03-.04-.04-.06-.31-.33.06.31-.5-.13-.41-.5.21-.41-.51-.66-.38-.28-.41-.34-.27-.37.07,0,.18-.01.29.01.11.03.24.06.25.05-1.21-.41-2.45-1.06-3.27-1.13l.78-.02c-.47,0-.85-.03-1.23-.06.14.08.29.18.42.27-.44-.1-.81-.05-.8-.15-.44.18.34.37-.5.64-.14-.02-.31-.02-.5,0-.18.04-.37.09-.55.13-.36.08-.68.14-.81,0,1.72-.26-.27-.27,1.2-.63-.28.1-.63.17-1.06.22-.07-.02.04-.08.16-.12-.89.03-1.02.24-1.18.41-.15.19-.29.39-1.08.69.12-.26-.49-.13-.72.02.62-.3.41.13-.08.52-1.03.35-.98.62-1.44.9l.56-.28c-.09.27-.54.53-1.11.96-.13-.08.5-.43.25-.35-.25.35-.69.51-1.14.73-.44.22-.93.47-1.31.89-.49.23-.25-.23-.66-.01-.83.98-1.18.72-2.05,1.75.45-.08.45-.17-.07.62l1.48-1.58-.79,1.19c.48-.43.91-1.03,1.23-1.26-.36.59-.35.5.01.44-.42.15-.7.46-.97.79-.14.16-.27.34-.42.5-.07.08-.15.16-.24.24-.08.07-.12.1-.21.15l-.14.02-.25-.54s-.14.03-.21.06c-.09.03-.17.07-.26.11-.17.08-.33.17-.47.28l1.61,1.56c.64-1,.93-2.1,1.75-3.5l-.39.54c-.08-.35.54-1.13.7-1.78.16.14.39-.22.6-.45-.13,0,.52-1.45.17-1.75.16-.28.32-.56.46-.86.2-.85.09-1.39-.07-1.88-.16-.49-.34-.95-.56-1.75.35.44.3-.4.72.75-.1-.6-.28-1.14-.41-1.09-.01-.18-.23-.57-.54-.9-.28-.35-.65-.65-.78-.9-.26-.09-.42-.03-.94-.38-.04-.07.06-.08.06-.08-.05.05-.91-.36-.55.08-.57-.69-1.74-1.06-2.84-1.21-1.11-.14-2.18-.16-2.88-.42-.14,0-.19.01-.25.02-.07.02-.13-.02-.19-.03l-.34-.12c-.18-.05-.32-.07-.45-.09-.54-.08-1.08-.08-1.54-.03l.22,1.2c.26-.09.46-.16.66-.22-.04.08.03.1-.16.13,1.41-.27.65-.79,2.22-1.17.89-.01-.74.48-.21.4.46.52,1.79-.79,2.95-1.09l-.22.18c.44-.13.89-.49,1.33-1.02.42-.5.97-1.45.79-2.41,0,0,.08.09.1,0-.13-.33-.38-.67-.67-.98-.29-.26-.6-.5-.93-.7-.66-.4-1.37-.71-1.98-.95.48-.05.6.14.48-.2-.56-.22-.02.43-1.12.02-.29-.28-1.04-.69-1.05-.98.35.11.7.25,1.05.38-.2-.27-.54-.41-.9-.49l-.26-.06h-.13c-.09.01-.18-.13-.24-.21l.13-.08c-.05-.05-.1-.1-.14-.14l-.82,1.64c1.39.17,1.57-.15,3.22.16l-.16-.15c1.03-.22.77.35,1.78.22l.23.44c.65,0,2.29-.03,3.45.04-.69.21-2.06.17-2.91.21.63.1,2.17.29,2.52.14-.26,0-.6.06-.84-.04.83-.2,1.86-.21,3.14-.09-.14.37.67.52,1.73.54.28,0,.56,0,.95-.1.16-.04.27-.08.4-.11.14-.05.29-.1.43-.16.65-.27,1.06-.76,1.34-1.06.26-.8.27-1.35.37-1.95.08-.57.16-1.15.25-1.74.04-.29.09-.58.13-.88l.06-.44.03-.13c.04-.17.07-.31.08-.5-.55-.54,0-.28-.51-1.36,0-.48.03-.63.06-.56.07-.05.13-.07.19-.05.07.06.09-.06.21.39.09.37.08.42.08.46v.03s0,.08,0,.12c.01.09.02.18.05.28,0-.08.04.08.07.16.03.14.05.22.06.28.04.24.04.21.16.94-.1-.64-.08-.78-.01-.48-.03-.24-.08-.54-.16-.89.09-.13.22.37.23.65.05.33-.02.47.16.46-.07.02-.12.05-.16.11.03-.01.05,0,.1.05.22.29.55.73.91,1.11.2.21.36.36.67.59.32.23.65.42.98.51.66.21,1.27.03,1.56-.26.06,0,.12-.01.18-.02.16,0,.29.03.06.19-.02.03-.1.09-.21.13.07-.02.15-.05.22-.1l.32-.15.22-.11c.14-.07.28-.15.42-.23.28-.15.54-.33.81-.5.53-.35,1.04-.73,1.52-1.11.98-.75,1.86-1.48,2.67-1.9l-.05.23c.32-.3.43-.69.96-.91.02.07-.05.23.12.11.16-.18.74-.94,1.24-1.24l-.28.44c1.9-1.32,2.4-2.61,3.7-3.99.3.32,1.7-.82,2.36-1.43l.02.07c1.12-1.09,1.88-2.15,2.64-3.2l-2.04-.48.2.44.15-1.04c-.37.68-.74,1.37-1.18,2.11-1.26.97-3.06,4.11-4.6,6.03.27-.27.25.24.06.63-.38.44-.58,1.51-.87,1.22l.11-.17c-.28.08-.56.39-.82.78-.06.1-.13.2-.19.31-.1.17-.2.35-.3.53-.23.39-.43.79-.62,1.15.16.07.33.14.5.18-.31.4-.61.88-.81,1.34-.19.45-.28.88-.27,1.22,0,.17.03.33.08.49.03.08.06.16.11.24.04.09.2.13.22.22.12.05.26.06.41.07.16,0,.25.05.51-.03.22-.05.43-.1.65-.15l.31-.07.15-.04.19-.09c.5-.23.97-.44,1.4-.62.41-.17.87-.35,1.16-.44.23-.06.44-.08.62-.07.47-.35,1.13-.63,1.6-.98l.08.27c1.49-.56,2.23-.84,4.02-1.65l-.29.34c1.03-.41.98-1.29,1.92-1.69l.44.28c1.79-.74,3.74-1.11,5.38-2.16,0,.07-.02.2-.3.33.85-.33,3.39-.99,2.87-1.41.15.34,1.88-.67,2.8-1.18l-.06.32c.7-.64.7-.74,1.82-1.25.29-.06.32.12-.07.19.97-.19.63-.5,1.79-.75l-.35.31c.95-.31.84-.38,1.29-.76.56-.32,1.82-.56,2.04-.36.08-.19.53-.56,1.11-.68.11.06-.08.19-.17.25,1.64-.36,2.26-1.1,3.44-1.19.05.08.14.1.24.1-1.27.4-2.29.72-2.2.67.08.24,1.11-.05.42.55.75-.45,2.03-1.3,3.06-1.51.06,0,.11.02.16.04l-.09.06c.24-.05.44-.14.62-.24.33-.06.54-.1.85-.19.18.17,1.21-.25,1.72-.4-.12-.26.56-.42-.14-.45.09,0-.09.06-.42.18-.07.03-.16.06-.21.09l.03-.03c-.33.11-.77.25-1.27.41.36-.26.75-.5,1.36-.53.21-.25.44-.52.58-.65.41.08.96.07,1.45.06.12,0,.24,0,.35,0,.08,0,.12.03.16.05.07.05.11.13.14.19h.26s.15,0,.15,0h.07s0,0,0,0h0s.02,0,.02,0c.07,0,.13,0,.2-.02.14-.03.27-.09.39-.16l.06-.04.02-.02.05-.04c.12-.12.25-.24.37-.36l.16-.15c-.13-.15-.45-.58-.52-.66-.06-.06-.09-.16-.15-.2-.08-.06-.15-.12-.21-.19-.04-.05-.18-.19-.31-.32l-.19-.2s0,0,0,0c0,0,0,0,0,0l-.03.04-.08.09-.34.35c-.03.06-.32.25-.52.39-.22.16-.43.31-.63.45-.4.3-.73.6-.94.9-.38.28-.54.12-.74.12.21-.17.5-.31.59-.45-.76.55-2.42,1.32-2.44,1.75-1.12.39.43-.6-.97.19l.14-.2c-3.09.93-4.15,3.2-7.63,4.15.24-.07.36-.11.43-.08-3.72,1.55-7.19,4.1-10.92,5.53-1.04.45-1.04.71-1.55,1.2l-.36-.15-.86.88c-1.33,1.04-2.89.77-4.47,2.26l.34.04c-.68.35-2,1.35-2.01,1.08-.05.07-.1.31-.41.38l-.1-.12c-.48.41-.95.83-1.42,1.26-1.26.77-.17-.7-1.95.63-.31.31-.7.76-.94,1.35-.12.24-.2.75-.03,1.03.19.29.26.25.2.12-.12-.18-.13-.41-.08-.57.05-.15.13-.27.2-.33.14-.16.29-.21.35-.17-.13.21-.29.44-.25.75.12.03.27.02.35-.05.1-.05.22-.09.28-.19l.02-.04v-.02s.01,0,.01,0h0s-.28.23-.28.23h0s0,0,0,0h0s.06-.03.24.03c.14.02.28.09.42.17.03,0,.05,0,.09,0,.08-.03.19-.09.34-.19.17-.3.4-.61.65-.92l.43-.04c-.26.2-.51.4-.74.6.54-.17.7-.53.95-.86.15.04.33.01.55-.08.23-.34.48-.68.72-1.02.22.08-.24.59.47.24.35-.47-.67-.06.03-.67.6-.13.55.11,1.03-.41.14.05.06.19-.14.38.43-.44,1.33-.88,1.48-1.26.65-.09,1.74-1.09,1.91-.68.11-.19.76-.83,1.23-1.12-.63.96,1.84-1,1.88-.37.43-.78,2.29-1.5,3.35-2.37-.05.07-.14.21-.26.24.68-.32.94-.3,1.41-.45-.1-.39.9-1.02,1.34-1.54,1-.1-.28.67.15.85-.19-.26,1.27-1.03.87-1.12.74-.12.59-.18,1.07-.07-.12-.49.54-.38.92-.92,1.02-.26.45.28,1.38-.37.54-.12-.26.5-.26.5ZM68.49,3.75h0c.22-.08.4-.15.52-.19-.11.04-.26.1-.52.19ZM66.34,4.45c.27-.07.59-.18.94-.29.11.07.06.19-.16.25.1-.1-.43.01-.77.04ZM71.47,4.85c-.33.14-.46.12-.52.08.16-.06.34-.13.58-.21,0-.01.02-.03.03-.05-.02.06-.04.12-.09.18Z"/>
        <path class="cls-1" d="M71.97,4.31s.07-.04.13-.06c-.08,0-.15,0-.22,0-.03.04-.06.08-.09.12.06-.02.12-.04.18-.06Z"/>
        <path class="cls-1" d="M55.91,30.1h-.05s.07.02.1.04c-.03-.02-.03-.02-.05-.04Z"/>
        <polygon class="cls-1" points="37 15.13 37.04 15.2 37.19 15.06 37 15.13"/>
        <path class="cls-1" d="M68.24,31.87s.07.06.16.08c0-.02-.07-.05-.16-.08Z"/>
        <path class="cls-1" d="M63.55,30.2l-.74-.18c.32.1.55.15.74.18Z"/>
        <path class="cls-1" d="M59.48,29.57c-.06.04-.08.08-.1.11h0s.09-.11.09-.11Z"/>
        <path class="cls-1" d="M19.04,38.08s-.09.06-.12.09c-.27.24-.08.09.12-.09Z"/>
        <path class="cls-1" d="M32.34,31.65c-.1.17-.19.33-.27.51.19-.24.39-.37.27-.51Z"/>
        <path class="cls-1" d="M12.94,31.05h0s-.03-.05-.06-.07c.02.02.04.05.06.07Z"/>
        <path class="cls-1" d="M31.61,32.84c.21-.25.33-.47.46-.68-.18.18-.36.43-.46.68Z"/>
        <path class="cls-1" d="M42.13,26.14l-.18-.07s-.02.03-.04.04l.22.03Z"/>
        <path class="cls-1" d="M41.91,26.1l-.22-.03c.09.03.18.05.22.03Z"/>
        <path class="cls-1" d="M41.25,25.99c.14.04.3.06.45.08-.15-.05-.33-.12-.45-.08Z"/>
        <path class="cls-1" d="M47.29,27.61l.08-.09s-.06.04-.08.09Z"/>
        <path class="cls-1" d="M48.91,27.9c-.38-.1-.92-.4-1.47-.44l-.07.07c.28-.1,1.14.47,1.54.37Z"/>
        <path class="cls-1" d="M55.52,30.28l-1.37-.28c.22.14.52.33-.11.27,1.69.57-.32-.29,1.48,0Z"/>
        <path class="cls-1" d="M59.79,31.01c-.75-.04-.01.16-.06.21.48-.04.6-.05.06-.21Z"/>
        <path class="cls-1" d="M46.19,29.45l.08-.25c-.58.02,0,.1-.08.25Z"/>
        <polygon class="cls-1" points="40.22 30.69 40.78 30.85 41.05 30.62 40.22 30.69"/>
        <polygon class="cls-1" points="36.64 28.97 36.89 28.92 35.92 29.07 36.64 28.97"/>
        <path class="cls-1" d="M8.45,27.05l.16.33c.41-.03.53-.38-.16-.33Z"/>
        <path class="cls-1" d="M8.49,20.61c.22.2.83.4,1.24.31-.5-.1-.98-.31-1.24-.31Z"/>
        <path class="cls-1" d="M32.57,16.88c0-.17.01-.36.06-.57-.07.21-.12.41-.13.58-.04.19-.04.35-.03.49.02-.15.04-.31.1-.5Z"/>
      </g>
    </g>
  </g>
</svg>