<svg width="74" height="14" viewBox="0 0 74 14" fill="none" xmlns="http://www.w3.org/2000/svg">
<path d="M66.6493 10.9167L63.0193 13.1452C62.9127 13.1987 62.8137 13.2204 62.7223 13.2103C62.6316 13.1994 62.5433 13.1676 62.4573 13.1147C62.3707 13.0605 62.3053 12.9839 62.2613 12.8849C62.2173 12.786 62.2133 12.6779 62.2493 12.5606L63.2153 8.38222L60.0203 5.56612C59.9303 5.49157 59.871 5.40244 59.8423 5.29874C59.8136 5.19504 59.82 5.09575 59.8613 5.00087C59.9026 4.90598 59.9576 4.82804 60.0263 4.76704C60.0956 4.70807 60.189 4.66809 60.3063 4.64707L64.5223 4.27295L66.1663 0.316176C66.2117 0.204346 66.277 0.123691 66.3623 0.0742149C66.4477 0.0247383 66.5433 0 66.6493 0C66.7553 0 66.8513 0.0247383 66.9373 0.0742149C67.0233 0.123691 67.0883 0.204346 67.1323 0.316176L68.7763 4.27295L72.9913 4.64707C73.1093 4.66741 73.203 4.70773 73.2723 4.76805C73.3416 4.8277 73.397 4.9053 73.4383 5.00087C73.479 5.09575 73.485 5.19504 73.4563 5.29874C73.4276 5.40244 73.3683 5.49157 73.2783 5.56612L70.0833 8.38222L71.0493 12.5606C71.0866 12.6765 71.083 12.7843 71.0383 12.8839C70.9937 12.9835 70.928 13.0601 70.8413 13.1137C70.756 13.1679 70.6677 13.2001 70.5763 13.2103C70.4857 13.2204 70.387 13.1987 70.2803 13.1452L66.6493 10.9167Z" fill="#CFB17A"/>
<path d="M51.6493 10.9167L48.0193 13.1452C47.9127 13.1987 47.8137 13.2204 47.7223 13.2103C47.6316 13.1994 47.5433 13.1676 47.4573 13.1147C47.3707 13.0605 47.3053 12.9839 47.2613 12.8849C47.2173 12.786 47.2133 12.6779 47.2493 12.5606L48.2153 8.38222L45.0203 5.56612C44.9303 5.49157 44.871 5.40244 44.8423 5.29874C44.8136 5.19504 44.82 5.09575 44.8613 5.00087C44.9026 4.90598 44.9576 4.82804 45.0263 4.76704C45.0956 4.70807 45.189 4.66809 45.3063 4.64707L49.5223 4.27295L51.1663 0.316176C51.2117 0.204346 51.277 0.123691 51.3623 0.0742149C51.4477 0.0247383 51.5433 0 51.6493 0C51.7553 0 51.8513 0.0247383 51.9373 0.0742149C52.0233 0.123691 52.0883 0.204346 52.1323 0.316176L53.7763 4.27295L57.9913 4.64707C58.1093 4.66741 58.203 4.70773 58.2723 4.76805C58.3416 4.8277 58.397 4.9053 58.4383 5.00087C58.479 5.09575 58.485 5.19504 58.4563 5.29874C58.4276 5.40244 58.3683 5.49157 58.2783 5.56612L55.0833 8.38222L56.0493 12.5606C56.0866 12.6765 56.083 12.7843 56.0383 12.8839C55.9937 12.9835 55.928 13.0601 55.8413 13.1137C55.756 13.1679 55.6677 13.2001 55.5763 13.2103C55.4857 13.2204 55.387 13.1987 55.2803 13.1452L51.6493 10.9167Z" fill="#CFB17A"/>
<path d="M36.6493 10.9167L33.0193 13.1452C32.9127 13.1987 32.8137 13.2204 32.7223 13.2103C32.6316 13.1994 32.5433 13.1676 32.4573 13.1147C32.3707 13.0605 32.3053 12.9839 32.2613 12.8849C32.2173 12.786 32.2133 12.6779 32.2493 12.5606L33.2153 8.38222L30.0203 5.56612C29.9303 5.49157 29.871 5.40244 29.8423 5.29874C29.8136 5.19504 29.82 5.09575 29.8613 5.00087C29.9026 4.90598 29.9576 4.82804 30.0263 4.76704C30.0956 4.70807 30.189 4.66809 30.3063 4.64707L34.5223 4.27295L36.1663 0.316176C36.2117 0.204346 36.277 0.123691 36.3623 0.0742149C36.4477 0.0247383 36.5433 0 36.6493 0C36.7553 0 36.8513 0.0247383 36.9373 0.0742149C37.0233 0.123691 37.0883 0.204346 37.1323 0.316176L38.7763 4.27295L42.9913 4.64707C43.1093 4.66741 43.203 4.70773 43.2723 4.76805C43.3416 4.8277 43.397 4.9053 43.4383 5.00087C43.479 5.09575 43.485 5.19504 43.4563 5.29874C43.4276 5.40244 43.3683 5.49157 43.2783 5.56612L40.0833 8.38222L41.0493 12.5606C41.0866 12.6765 41.083 12.7843 41.0383 12.8839C40.9937 12.9835 40.928 13.0601 40.8413 13.1137C40.756 13.1679 40.6677 13.2001 40.5763 13.2103C40.4857 13.2204 40.387 13.1987 40.2803 13.1452L36.6493 10.9167Z" fill="#CFB17A"/>
<path d="M21.6493 10.9167L18.0193 13.1452C17.9127 13.1987 17.8137 13.2204 17.7223 13.2103C17.6316 13.1994 17.5433 13.1676 17.4573 13.1147C17.3707 13.0605 17.3053 12.9839 17.2613 12.8849C17.2173 12.786 17.2133 12.6779 17.2493 12.5606L18.2153 8.38222L15.0203 5.56612C14.9303 5.49157 14.871 5.40244 14.8423 5.29874C14.8136 5.19504 14.82 5.09575 14.8613 5.00087C14.9026 4.90598 14.9576 4.82804 15.0263 4.76704C15.0956 4.70807 15.189 4.66809 15.3063 4.64707L19.5223 4.27295L21.1663 0.316176C21.2117 0.204346 21.277 0.123691 21.3623 0.0742149C21.4477 0.0247383 21.5433 0 21.6493 0C21.7553 0 21.8513 0.0247383 21.9373 0.0742149C22.0233 0.123691 22.0883 0.204346 22.1323 0.316176L23.7763 4.27295L27.9913 4.64707C28.1093 4.66741 28.203 4.70773 28.2723 4.76805C28.3416 4.8277 28.397 4.9053 28.4383 5.00087C28.479 5.09575 28.485 5.19504 28.4563 5.29874C28.4276 5.40244 28.3683 5.49157 28.2783 5.56612L25.0833 8.38222L26.0493 12.5606C26.0866 12.6765 26.083 12.7843 26.0383 12.8839C25.9937 12.9835 25.928 13.0601 25.8413 13.1137C25.756 13.1679 25.6677 13.2001 25.5763 13.2103C25.4857 13.2204 25.387 13.1987 25.2803 13.1452L21.6493 10.9167Z" fill="#CFB17A"/>
<path d="M6.82461 10.9167L3.19461 13.1452C3.08794 13.1987 2.98894 13.2204 2.89761 13.2103C2.80694 13.1994 2.71861 13.1676 2.63261 13.1147C2.54594 13.0605 2.48061 12.9839 2.43661 12.8849C2.39261 12.786 2.38861 12.6779 2.42461 12.5606L3.39061 8.38222L0.195609 5.56612C0.105609 5.49157 0.0462762 5.40244 0.0176095 5.29874C-0.0110572 5.19504 -0.00472378 5.09575 0.0366096 5.00087C0.0779429 4.90598 0.132943 4.82804 0.20161 4.76704C0.270943 4.70807 0.364276 4.66809 0.48161 4.64707L4.69761 4.27295L6.34161 0.316176C6.38694 0.204346 6.45228 0.123691 6.53761 0.0742149C6.62294 0.0247383 6.71861 0 6.82461 0C6.93061 0 7.02661 0.0247383 7.11261 0.0742149C7.19861 0.123691 7.26361 0.204346 7.30761 0.316176L8.95161 4.27295L13.1666 4.64707C13.2846 4.66741 13.3783 4.70773 13.4476 4.76805C13.5169 4.8277 13.5723 4.9053 13.6136 5.00087C13.6543 5.09575 13.6603 5.19504 13.6316 5.29874C13.6029 5.40244 13.5436 5.49157 13.4536 5.56612L10.2586 8.38222L11.2246 12.5606C11.2619 12.6765 11.2583 12.7843 11.2136 12.8839C11.1689 12.9835 11.1033 13.0601 11.0166 13.1137C10.9313 13.1679 10.8429 13.2001 10.7516 13.2103C10.6609 13.2204 10.5623 13.1987 10.4556 13.1452L6.82461 10.9167Z" fill="#CFB17A"/>
</svg>
